# xmcd
# Copyright (C) 1995-1998 Ti Kan
#
# Track frame offsets:
#       150
#       28926
#       44524
#       61244
#       76478
#       102938
#       129741
#       145377
#       165150
#       179842
#       199142
#       215330
#
# Disc length: 3279 seconds
#
# Revision: 0
# Processed by: cddbd v1.5.2PL0 Copyright (c) Steve Scherf et al.
# Submitted via: CD-Import v1.0
#
DISCID=b10ccd0c
DTITLE=The Brother Kit - Isolation
DYEAR=10
DGENRE=
TTITLE0=Martyr For The Cause
TTITLE1=Isolation
TTITLE2=The Scene Is Changing
TTITLE3=Clearly
TTITLE4=Not Good Enough
TTITLE5=The Great Divide
TTITLE6=Young Pioneer
TTITLE7=Searching For The Light
TTITLE8=Constant Reminder
TTITLE9=Awakened
TTITLE10=Keep Moving
TTITLE11=The Pasture
EXTD=
EXTT0=
EXTT1=
EXTT2=
EXTT3=
EXTT4=
EXTT5=
EXTT6=
EXTT7=
EXTT8=
EXTT9=
EXTT10=
EXTT11=
PLAYORDER=
